<svg xmlns="http://www.w3.org/2000/svg" width="660.303" height="481.383" viewBox="0 0 660.303 481.383"><defs><style>.a,.m{fill:#35bff7;}.b{fill:#fefef4;}.c{fill:#fff;}.d{fill:#263238;}.e,.i{fill:#ff9e8c;}.f{fill:#ebf2ff;}.g{fill:#165068;}.h{fill:#050709;}.h,.i,.n{opacity:0.6;}.h,.i,.j,.l,.m,.n{mix-blend-mode:multiply;isolation:isolate;}.j{fill:#ff1e00;}.j,.l,.m{opacity:0.3;}.k{fill:#bee1fc;}.o{fill:#f1f1fb;}</style></defs><g transform="translate(-1503.919 -860.823)"><g transform="translate(1523.065 959.253)"><rect class="a" width="163.558" height="127.608" rx="13.046" transform="translate(0)"/><g transform="translate(13.607 8.728)"><path class="b" d="M1614.263,1217.618a3.319,3.319,0,1,1,3.319-3.319A3.323,3.323,0,0,1,1614.263,1217.618Zm0-6.2a2.881,2.881,0,1,0,2.881,2.881A2.884,2.884,0,0,0,1614.263,1211.418Z" transform="translate(-1610.944 -1210.98)"/><g transform="translate(12.049)"><path class="b" d="M1653.635,1217.618a3.319,3.319,0,1,1,3.319-3.319A3.323,3.323,0,0,1,1653.635,1217.618Zm0-6.2a2.881,2.881,0,1,0,2.881,2.881A2.884,2.884,0,0,0,1653.635,1211.418Z" transform="translate(-1650.316 -1210.98)"/></g><g transform="translate(24.098)"><path class="b" d="M1693.008,1217.618a3.319,3.319,0,1,1,3.319-3.319A3.323,3.323,0,0,1,1693.008,1217.618Zm0-6.2a2.881,2.881,0,1,0,2.881,2.881A2.884,2.884,0,0,0,1693.008,1211.418Z" transform="translate(-1689.689 -1210.98)"/></g></g><g transform="translate(0 24.759)"><rect class="b" width="163.558" height="0.438"/></g><g transform="translate(25.348 49.233)"><path class="c" d="M1673.773,1351.651a3.383,3.383,0,0,1-.839.959,1.877,1.877,0,0,1-1.133.32,2.771,2.771,0,0,1-1.319-.386q-.706-.386-1.6-.866a13.291,13.291,0,0,0-2.038-.866,8.17,8.17,0,0,0-2.612-.387,5.619,5.619,0,0,0-3.771,1.079,3.671,3.671,0,0,0-1.24,2.918,2.686,2.686,0,0,0,.746,1.946,6.415,6.415,0,0,0,1.958,1.332,20.941,20.941,0,0,0,2.772,1.026q1.559.466,3.185,1.039a28.508,28.508,0,0,1,3.184,1.346,10.629,10.629,0,0,1,2.772,1.972A9.2,9.2,0,0,1,1675.8,1366a10.384,10.384,0,0,1,.746,4.144,13.5,13.5,0,0,1-.932,5.037,11.794,11.794,0,0,1-2.705,4.091,12.561,12.561,0,0,1-4.371,2.745,16.352,16.352,0,0,1-5.9,1,18.934,18.934,0,0,1-3.691-.373,21.9,21.9,0,0,1-3.638-1.052,21.048,21.048,0,0,1-3.3-1.612,14.021,14.021,0,0,1-2.692-2.079l2.665-4.211a2.665,2.665,0,0,1,.84-.76,2.189,2.189,0,0,1,1.133-.306,3.038,3.038,0,0,1,1.612.506q.813.507,1.839,1.119a14.875,14.875,0,0,0,2.359,1.119,8.833,8.833,0,0,0,3.145.506,5.987,5.987,0,0,0,3.811-1.079,4.109,4.109,0,0,0,1.359-3.425,3.239,3.239,0,0,0-.746-2.212,5.771,5.771,0,0,0-1.959-1.413,18.048,18.048,0,0,0-2.758-.986q-1.546-.426-3.171-.946a23.223,23.223,0,0,1-3.172-1.279,10.007,10.007,0,0,1-2.758-2,9.335,9.335,0,0,1-1.959-3.092,12.27,12.27,0,0,1-.746-4.571,10.846,10.846,0,0,1,.879-4.264,11.008,11.008,0,0,1,2.585-3.7,12.717,12.717,0,0,1,4.184-2.6,15.454,15.454,0,0,1,5.676-.973,21.288,21.288,0,0,1,3.478.28,18.316,18.316,0,0,1,3.211.826,17.64,17.64,0,0,1,2.839,1.306,13.107,13.107,0,0,1,2.359,1.719Z" transform="translate(-1649.308 -1343.336)"/><path class="c" d="M1767.344,1407.731a3.874,3.874,0,0,1-1.772-.32,2.443,2.443,0,0,1-1-1.333l-.586-1.519q-1.039.879-2,1.546a12.6,12.6,0,0,1-1.985,1.133,9.822,9.822,0,0,1-2.185.693,13.475,13.475,0,0,1-2.572.227,11.273,11.273,0,0,1-3.438-.493,7.168,7.168,0,0,1-2.625-1.453,6.379,6.379,0,0,1-1.665-2.385,8.6,8.6,0,0,1-.586-3.291,6.905,6.905,0,0,1,.746-3.011,7.431,7.431,0,0,1,2.585-2.812,16.447,16.447,0,0,1,4.957-2.119,33.306,33.306,0,0,1,7.862-.96v-1.172a5.071,5.071,0,0,0-1-3.5,3.678,3.678,0,0,0-2.839-1.079,7.531,7.531,0,0,0-2.4.32,10.746,10.746,0,0,0-1.666.72q-.733.4-1.426.719a3.912,3.912,0,0,1-1.652.32,2.379,2.379,0,0,1-1.439-.426,3.693,3.693,0,0,1-.959-1.013l-1.493-2.585a16.791,16.791,0,0,1,5.557-3.291,19.472,19.472,0,0,1,6.543-1.08,11.968,11.968,0,0,1,4.517.813,9.722,9.722,0,0,1,3.411,2.265,9.9,9.9,0,0,1,2.145,3.451,12.408,12.408,0,0,1,.747,4.371v17.27Zm-9.487-5.037a6.553,6.553,0,0,0,2.8-.56,8.507,8.507,0,0,0,2.425-1.812v-3.837a27.481,27.481,0,0,0-4.077.427,9.9,9.9,0,0,0-2.532.8,3.062,3.062,0,0,0-1.292,1.093,2.589,2.589,0,0,0-.36,1.333,2.315,2.315,0,0,0,.773,1.986A3.768,3.768,0,0,0,1757.857,1402.694Z" transform="translate(-1717.055 -1368.476)"/><path class="c" d="M1859.216,1407.731a3.873,3.873,0,0,1-1.772-.32,2.442,2.442,0,0,1-1-1.333l-.586-1.519q-1.039.879-2,1.546a12.627,12.627,0,0,1-1.985,1.133,9.811,9.811,0,0,1-2.185.693,13.473,13.473,0,0,1-2.572.227,11.27,11.27,0,0,1-3.438-.493,7.166,7.166,0,0,1-2.625-1.453,6.38,6.38,0,0,1-1.666-2.385,8.6,8.6,0,0,1-.586-3.291,6.9,6.9,0,0,1,.746-3.011,7.431,7.431,0,0,1,2.585-2.812,16.445,16.445,0,0,1,4.957-2.119,33.305,33.305,0,0,1,7.862-.96v-1.172a5.069,5.069,0,0,0-1-3.5,3.679,3.679,0,0,0-2.838-1.079,7.529,7.529,0,0,0-2.4.32,10.743,10.743,0,0,0-1.666.72q-.734.4-1.426.719a3.911,3.911,0,0,1-1.652.32,2.379,2.379,0,0,1-1.439-.426,3.7,3.7,0,0,1-.959-1.013l-1.493-2.585a16.789,16.789,0,0,1,5.557-3.291,19.471,19.471,0,0,1,6.542-1.08,11.969,11.969,0,0,1,4.517.813,9.725,9.725,0,0,1,3.411,2.265,9.9,9.9,0,0,1,2.145,3.451,12.408,12.408,0,0,1,.746,4.371v17.27Zm-9.488-5.037a6.553,6.553,0,0,0,2.8-.56,8.51,8.51,0,0,0,2.425-1.812v-3.837a27.48,27.48,0,0,0-4.077.427,9.891,9.891,0,0,0-2.532.8,3.06,3.06,0,0,0-1.292,1.093,2.587,2.587,0,0,0-.36,1.333,2.315,2.315,0,0,0,.773,1.986A3.769,3.769,0,0,0,1849.729,1402.694Z" transform="translate(-1780.811 -1368.476)"/><path class="c" d="M1953.572,1351.651a3.379,3.379,0,0,1-.839.959,1.876,1.876,0,0,1-1.133.32,2.773,2.773,0,0,1-1.319-.386q-.706-.386-1.6-.866a13.276,13.276,0,0,0-2.039-.866,8.167,8.167,0,0,0-2.612-.387,5.621,5.621,0,0,0-3.771,1.079,3.672,3.672,0,0,0-1.239,2.918,2.686,2.686,0,0,0,.746,1.946,6.409,6.409,0,0,0,1.959,1.332,20.945,20.945,0,0,0,2.772,1.026q1.559.466,3.185,1.039a28.5,28.5,0,0,1,3.185,1.346,10.625,10.625,0,0,1,2.772,1.972A9.2,9.2,0,0,1,1955.6,1366a10.388,10.388,0,0,1,.746,4.144,13.5,13.5,0,0,1-.933,5.037,11.8,11.8,0,0,1-2.705,4.091,12.563,12.563,0,0,1-4.371,2.745,16.353,16.353,0,0,1-5.9,1,18.932,18.932,0,0,1-3.691-.373,21.913,21.913,0,0,1-3.638-1.052,21.054,21.054,0,0,1-3.3-1.612,14,14,0,0,1-2.692-2.079l2.665-4.211a2.666,2.666,0,0,1,.84-.76,2.189,2.189,0,0,1,1.133-.306,3.038,3.038,0,0,1,1.612.506q.813.507,1.839,1.119a14.86,14.86,0,0,0,2.359,1.119,8.833,8.833,0,0,0,3.145.506,5.987,5.987,0,0,0,3.811-1.079,4.11,4.11,0,0,0,1.359-3.425,3.238,3.238,0,0,0-.746-2.212,5.767,5.767,0,0,0-1.959-1.413,18.052,18.052,0,0,0-2.758-.986q-1.546-.426-3.171-.946a23.207,23.207,0,0,1-3.171-1.279,10,10,0,0,1-2.758-2,9.333,9.333,0,0,1-1.959-3.092,12.27,12.27,0,0,1-.746-4.571,10.842,10.842,0,0,1,.88-4.264,11.006,11.006,0,0,1,2.585-3.7,12.722,12.722,0,0,1,4.184-2.6,15.455,15.455,0,0,1,5.677-.973,21.281,21.281,0,0,1,3.478.28,18.326,18.326,0,0,1,3.211.826,17.62,17.62,0,0,1,2.838,1.306,13.078,13.078,0,0,1,2.359,1.719Z" transform="translate(-1843.481 -1343.336)"/></g><g transform="translate(67.314 113.17)"><circle class="c" cx="14.383" cy="14.383" r="14.383"/><circle class="a" cx="8.875" cy="8.875" r="8.875" transform="translate(5.509 5.509)"/></g></g><g transform="translate(1791.974 860.823)"><g transform="translate(67.702 113.514)"><circle class="c" cx="14.383" cy="14.383" r="14.383"/><circle class="a" cx="8.875" cy="8.875" r="8.875" transform="translate(5.509 5.509)"/></g><g transform="translate(0)"><path class="a" d="M2605.062,989.043h-63.709v-.306a14.077,14.077,0,1,0-28.155-.016v.306l-.306.016h-63.4a4.3,4.3,0,0,1-4.3-4.3V865.12a4.3,4.3,0,0,1,4.3-4.3h155.573a4.3,4.3,0,0,1,4.3,4.3V984.743A4.3,4.3,0,0,1,2605.062,989.043Zm-63.1-.612h63.1a3.692,3.692,0,0,0,3.688-3.688V865.12a3.69,3.69,0,0,0-3.688-3.685H2449.49a3.69,3.69,0,0,0-3.687,3.685V984.743a3.692,3.692,0,0,0,3.688,3.688h63.1a14.689,14.689,0,0,1,29.373,0Z" transform="translate(-2445.19 -860.823)"/></g><g transform="translate(13.827 8.946)"><path class="a" d="M2493.777,896.868a3.406,3.406,0,1,1,3.406-3.406A3.41,3.41,0,0,1,2493.777,896.868Zm0-6.2a2.794,2.794,0,1,0,2.794,2.794A2.8,2.8,0,0,0,2493.777,890.668Z" transform="translate(-2490.371 -890.056)"/><g transform="translate(12.049)"><path class="a" d="M2533.15,896.868a3.406,3.406,0,1,1,3.406-3.406A3.41,3.41,0,0,1,2533.15,896.868Zm0-6.2a2.794,2.794,0,1,0,2.794,2.794A2.8,2.8,0,0,0,2533.15,890.668Z" transform="translate(-2529.744 -890.056)"/></g><g transform="translate(24.098)"><path class="a" d="M2572.522,896.868a3.406,3.406,0,1,1,3.406-3.406A3.41,3.41,0,0,1,2572.522,896.868Zm0-6.2a2.794,2.794,0,1,0,2.794,2.794A2.8,2.8,0,0,0,2572.522,890.668Z" transform="translate(-2569.116 -890.056)"/></g></g><g transform="translate(0.307 24.977)"><rect class="a" width="163.558" height="0.612"/></g><g transform="translate(25.188 49.557)"><path class="a" d="M2536.5,1050v12.979H2527.5v-38.83h13.7a22.605,22.605,0,0,1,7.049.972,13.546,13.546,0,0,1,4.851,2.679,10.447,10.447,0,0,1,2.812,4.024,13.649,13.649,0,0,1,.906,5.01,14.732,14.732,0,0,1-.933,5.33,10.7,10.7,0,0,1-2.852,4.157,13.434,13.434,0,0,1-4.864,2.7,22.281,22.281,0,0,1-6.969.973Zm0-6.8h4.691q3.517,0,5.063-1.679a6.668,6.668,0,0,0,1.545-4.69,7.013,7.013,0,0,0-.4-2.425,4.931,4.931,0,0,0-1.213-1.879,5.458,5.458,0,0,0-2.052-1.213,9.1,9.1,0,0,0-2.945-.426H2536.5Z" transform="translate(-2527.496 -1023.726)"/><path class="a" d="M2648.578,1087.155a3.868,3.868,0,0,1-1.772-.32,2.441,2.441,0,0,1-1-1.332l-.586-1.519q-1.04.879-2,1.546a12.643,12.643,0,0,1-1.985,1.133,9.8,9.8,0,0,1-2.185.693,13.49,13.49,0,0,1-2.571.226,11.287,11.287,0,0,1-3.438-.493,7.181,7.181,0,0,1-2.625-1.452,6.382,6.382,0,0,1-1.665-2.385,8.6,8.6,0,0,1-.586-3.291,6.9,6.9,0,0,1,.746-3.012,7.43,7.43,0,0,1,2.585-2.812,16.434,16.434,0,0,1,4.957-2.118,33.27,33.27,0,0,1,7.862-.96v-1.172a5.069,5.069,0,0,0-1-3.5,3.677,3.677,0,0,0-2.838-1.079,7.523,7.523,0,0,0-2.4.32,10.7,10.7,0,0,0-1.666.72q-.733.4-1.426.719a3.91,3.91,0,0,1-1.652.32,2.381,2.381,0,0,1-1.439-.426,3.7,3.7,0,0,1-.96-1.013l-1.492-2.585a16.792,16.792,0,0,1,5.556-3.292,19.476,19.476,0,0,1,6.543-1.079,11.966,11.966,0,0,1,4.517.813,9.717,9.717,0,0,1,3.411,2.265,9.9,9.9,0,0,1,2.146,3.452,12.407,12.407,0,0,1,.746,4.371v17.269Zm-9.488-5.037a6.55,6.55,0,0,0,2.8-.56,8.513,8.513,0,0,0,2.426-1.812v-3.837a27.539,27.539,0,0,0-4.078.427,9.887,9.887,0,0,0-2.531.8,3.066,3.066,0,0,0-1.293,1.093,2.585,2.585,0,0,0-.36,1.332,2.314,2.314,0,0,0,.773,1.985A3.769,3.769,0,0,0,2639.091,1082.118Z" transform="translate(-2597.357 -1047.899)"/><path class="a" d="M2740.45,1087.155a3.869,3.869,0,0,1-1.772-.32,2.441,2.441,0,0,1-1-1.332l-.586-1.519q-1.039.879-2,1.546a12.657,12.657,0,0,1-1.986,1.133,9.8,9.8,0,0,1-2.186.693,13.489,13.489,0,0,1-2.572.226,11.285,11.285,0,0,1-3.438-.493,7.176,7.176,0,0,1-2.625-1.452,6.389,6.389,0,0,1-1.666-2.385,8.6,8.6,0,0,1-.586-3.291,6.9,6.9,0,0,1,.747-3.012,7.43,7.43,0,0,1,2.585-2.812,16.432,16.432,0,0,1,4.957-2.118,33.273,33.273,0,0,1,7.862-.96v-1.172a5.067,5.067,0,0,0-1-3.5,3.676,3.676,0,0,0-2.838-1.079,7.524,7.524,0,0,0-2.4.32,10.738,10.738,0,0,0-1.666.72q-.733.4-1.426.719a3.909,3.909,0,0,1-1.653.32,2.38,2.38,0,0,1-1.438-.426,3.7,3.7,0,0,1-.96-1.013l-1.492-2.585a16.791,16.791,0,0,1,5.556-3.292,19.477,19.477,0,0,1,6.543-1.079,11.963,11.963,0,0,1,4.517.813,9.722,9.722,0,0,1,3.411,2.265,9.9,9.9,0,0,1,2.146,3.452,12.412,12.412,0,0,1,.747,4.371v17.269Zm-9.488-5.037a6.549,6.549,0,0,0,2.8-.56,8.5,8.5,0,0,0,2.425-1.812v-3.837a27.531,27.531,0,0,0-4.078.427,9.886,9.886,0,0,0-2.531.8,3.068,3.068,0,0,0-1.293,1.093,2.587,2.587,0,0,0-.36,1.332,2.314,2.314,0,0,0,.773,1.985A3.769,3.769,0,0,0,2730.963,1082.118Z" transform="translate(-2661.113 -1047.899)"/><path class="a" d="M2834.806,1031.074a3.394,3.394,0,0,1-.84.959,1.879,1.879,0,0,1-1.133.32,2.771,2.771,0,0,1-1.319-.386q-.706-.387-1.6-.866a13.314,13.314,0,0,0-2.039-.866,8.161,8.161,0,0,0-2.612-.387,5.62,5.62,0,0,0-3.771,1.079,3.672,3.672,0,0,0-1.239,2.918,2.687,2.687,0,0,0,.746,1.945,6.421,6.421,0,0,0,1.959,1.333,20.967,20.967,0,0,0,2.772,1.026q1.559.467,3.184,1.04a28.574,28.574,0,0,1,3.184,1.346,10.636,10.636,0,0,1,2.772,1.972,9.217,9.217,0,0,1,1.959,2.918,10.393,10.393,0,0,1,.746,4.144,13.5,13.5,0,0,1-.933,5.037,11.8,11.8,0,0,1-2.705,4.091,12.561,12.561,0,0,1-4.371,2.745,16.356,16.356,0,0,1-5.9,1,18.914,18.914,0,0,1-3.691-.373,21.883,21.883,0,0,1-3.638-1.053,21.049,21.049,0,0,1-3.3-1.612,14.01,14.01,0,0,1-2.692-2.079l2.666-4.211a2.662,2.662,0,0,1,.839-.76,2.188,2.188,0,0,1,1.133-.306,3.037,3.037,0,0,1,1.612.506q.812.507,1.839,1.119a14.89,14.89,0,0,0,2.358,1.12,8.845,8.845,0,0,0,3.145.506,5.988,5.988,0,0,0,3.811-1.079,4.11,4.11,0,0,0,1.359-3.425,3.237,3.237,0,0,0-.746-2.212,5.762,5.762,0,0,0-1.958-1.412,18.107,18.107,0,0,0-2.759-.986q-1.546-.426-3.171-.946a23.188,23.188,0,0,1-3.172-1.28,10,10,0,0,1-2.758-2,9.339,9.339,0,0,1-1.959-3.091,12.275,12.275,0,0,1-.746-4.571,10.845,10.845,0,0,1,.88-4.264,11,11,0,0,1,2.585-3.7,12.715,12.715,0,0,1,4.184-2.6,15.454,15.454,0,0,1,5.677-.973,21.319,21.319,0,0,1,3.478.28,18.323,18.323,0,0,1,3.211.826,17.7,17.7,0,0,1,2.839,1.306,13.081,13.081,0,0,1,2.358,1.719Z" transform="translate(-2723.782 -1022.759)"/></g></g><g transform="translate(1603.844 1104.49)"><path class="d" d="M2098.115,1783.509h-.675v-1.836h.675Zm-5.572,0h-2.448v-1.836h2.448Zm-7.345,0h-2.448v-1.836h2.448Zm-7.345,0h-2.448v-1.836h2.448Zm-7.344,0h-2.449v-1.836h2.449Zm-7.345,0h-2.448v-1.836h2.448Zm-7.344,0h-2.448v-1.836h2.448Zm-7.344,0h-2.448v-1.836h2.448Zm-7.345,0h-2.448v-1.836h2.448Zm-7.345,0h-2.448v-1.836h2.448Zm-7.345,0h-2.448v-1.836h2.448Zm-7.345,0h-2.448v-1.836h2.448Zm-7.345,0H2009.3v-1.836h2.448Zm-7.344,0h-2.448v-1.836h2.448Zm-7.345,0h-2.448v-1.836h2.448Zm-7.345,0h-2.448v-1.836h2.448Zm-7.345,0h-2.448v-1.836h2.448Zm-7.345,0h-2.448v-1.836h2.448Zm-7.345,0h-2.448v-1.836h2.448Zm-7.345,0h-2.448v-1.836h2.448Zm-7.344,0h-2.448v-1.836h2.448Zm-7.345,0H1943.2v-1.836h2.448Zm-7.345,0h-2.448v-1.836h2.448Zm-7.345,0h-2.448v-1.836h2.448Zm-7.345,0h-2.448v-1.836h2.448Zm-7.345,0h-2.448v-1.836h2.448Zm-7.345,0h-2.448v-1.836h2.448Zm-7.345,0h-2.448v-1.836h2.448Zm-7.345,0h-2.448v-1.836h2.448Zm-7.345,0h-2.448v-1.836h2.448Zm-7.345,0H1877.1v-1.836h2.448Zm-7.345,0h-1.059c-.475,0-.953-.009-1.42-.025l.063-1.835c.447.015.9.023,1.357.023h1.059Zm-7.461-.5c-.821-.13-1.648-.287-2.46-.467l.4-1.792c.775.172,1.565.322,2.348.446Zm-7.27-1.853c-.781-.278-1.564-.585-2.327-.912l.722-1.688c.729.312,1.476.6,2.221.87Zm-6.8-3.16c-.718-.419-1.432-.865-2.121-1.326l1.02-1.527c.659.44,1.341.866,2.026,1.266Zm-6.1-4.356c-.629-.542-1.249-1.111-1.844-1.692l1.282-1.315c.569.555,1.161,1.1,1.762,1.616Zm-5.207-5.4c-.519-.648-1.026-1.322-1.505-2l1.5-1.058c.458.65.942,1.293,1.438,1.912Zm-4.135-6.263c-.393-.735-.767-1.49-1.113-2.246l1.669-.764c.33.721.688,1.442,1.063,2.144Zm-2.912-6.919c-.25-.793-.478-1.6-.678-2.411l1.782-.442c.191.77.409,1.544.648,2.3Zm-1.582-7.333c-.1-.823-.174-1.662-.223-2.493l1.833-.107c.047.794.118,1.595.213,2.381Zm1.542-7.441h-1.836v-2.448h1.836Zm0-7.345h-1.836v-2.448h1.836Zm0-7.345h-1.836v-2.448h1.836Zm0-7.345h-1.836V1715.8h1.836Zm0-7.344h-1.836v-2.448h1.836Zm0-7.345h-1.836v-2.448h1.836Zm0-7.345h-1.836v-2.448h1.836Zm0-7.345h-1.836v-2.448h1.836Zm0-7.345h-1.836v-2.448h1.836Zm0-7.345h-1.836v-2.448h1.836Zm0-7.345h-1.836v-2.448h1.836Zm0-7.345h-1.836v-2.448h1.836Z" transform="translate(-1830.442 -1657.045)"/></g><g transform="translate(1873.142 1006.594)"><path class="d" d="M2787.49,1480.228h-1.836v-2.448h1.836Zm0-7.344h-1.836v-2.448h1.836Zm-2.023-7.245c-.08-.788-.186-1.584-.317-2.366l1.811-.3c.137.82.249,1.656.333,2.484Zm-1.409-7.01c-.231-.758-.491-1.518-.772-2.258l1.717-.651c.295.778.568,1.576.811,2.372Zm-2.749-6.6c-.374-.7-.777-1.391-1.2-2.064l1.558-.972c.441.706.863,1.436,1.256,2.167Zm-3.979-5.939c-.5-.612-1.032-1.216-1.574-1.8l1.341-1.255c.569.608,1.125,1.241,1.653,1.884Zm-5.054-5.062c-.613-.505-1.25-1-1.892-1.458l1.073-1.49c.674.486,1.342,1,1.986,1.531Zm-5.938-3.992c-.7-.377-1.419-.735-2.14-1.064l.763-1.67c.757.346,1.513.722,2.247,1.118Zm-6.6-2.761c-.757-.232-1.532-.443-2.3-.625l.423-1.787c.811.192,1.624.413,2.419.656Zm-7.009-1.418c-.786-.08-1.587-.136-2.382-.165l.068-1.835c.834.031,1.675.089,2.5.174Zm-7.321-.353c-.831-.076-1.667-.18-2.487-.309l.285-1.814c.781.123,1.578.222,2.369.294Zm-7.377-1.41c-.8-.236-1.6-.5-2.38-.788l.634-1.724c.744.274,1.506.526,2.266.751Zm-6.961-2.823c-.735-.386-1.469-.8-2.178-1.236l.958-1.567c.676.413,1.374.809,2.075,1.177Zm-6.274-4.119c-.648-.522-1.287-1.072-1.9-1.635l1.242-1.352c.583.536,1.193,1.06,1.81,1.557Zm-5.363-5.256c-.536-.637-1.057-1.3-1.55-1.971l1.48-1.088c.47.639.966,1.271,1.476,1.878Zm-4.25-6.195c-.4-.73-.785-1.483-1.138-2.237l1.662-.78c.337.718.7,1.435,1.085,2.13Zm-2.965-6.907c-.252-.793-.48-1.6-.679-2.413l1.783-.44c.19.77.407,1.543.647,2.3Zm-1.558-7.347c-.092-.826-.158-1.666-.2-2.5l1.834-.085c.037.793.1,1.593.188,2.38Zm1.6-7.436h-1.836v-2.448h1.836Zm0-7.345h-1.836v-2.448h1.836Zm0-7.345h-1.836v-2.448h1.836Zm0-7.345h-1.836v-2.448h1.836Zm0-7.345h-1.836v-2.448h1.836Zm0-7.345h-1.836v-2.448h1.836Zm0-7.345h-1.836V1344.5h1.836Zm0-7.345h-1.836v-2.448h1.836Z" transform="translate(-2710.419 -1337.154)"/></g><g transform="translate(1645.211 905.566)"><g transform="translate(173.479 398.522)"><path class="e" d="M2532.487,2309.269l14.668,1.571.286,9.113-13.147-.579C2533.789,2316.164,2533.045,2312.229,2532.487,2309.269Z" transform="translate(-2532.487 -2309.269)"/></g><g transform="translate(174.202 408.627)"><path class="f" d="M2551.754,2353.743l-.215-10.876-13.147-.579.311,12.3Z" transform="translate(-2537.308 -2342.289)"/><path class="d" d="M2641.892,2402.407h-8.07c-.56-6.05-2.473-8.358-2.54-8.44,1.233.208,2.638.45,4.159.716C2640.686,2395.595,2641.436,2400.06,2641.892,2402.407Z" transform="translate(-2601.772 -2378.152)"/><path class="d" d="M2541.061,2407.556h-6.209l.719-6.169A6.211,6.211,0,0,1,2541.061,2407.556Z" transform="translate(-2534.852 -2383.301)"/></g><g transform="translate(82.935 399.596)"><path class="e" d="M2252.626,2312.779h-14.752l-1.255,9.031h13.43Q2251.314,2317.1,2252.626,2312.779Z" transform="translate(-2236.619 -2312.779)"/></g><g transform="translate(56.048 408.627)"><path class="f" d="M2235.285,2354.976l-2.623-5.459,1.211-7.228h13.43l-1.591,12.3Z" transform="translate(-2206.986 -2342.289)"/><path class="d" d="M2148.762,2402.407h8.07c.56-6.05,2.472-8.358,2.54-8.44-1.233.208-2.638.45-4.159.716C2149.967,2395.595,2149.218,2400.06,2148.762,2402.407Z" transform="translate(-2148.762 -2378.152)"/><path class="d" d="M2259.572,2407.556h6.209l-.719-6.169A6.21,6.21,0,0,0,2259.572,2407.556Z" transform="translate(-2225.661 -2383.301)"/><g transform="translate(0.001 7.228)"><path d="M2566.9,2382.933c-.56-6.049-2.472-8.357-2.54-8.439-3.1-.532-5.1-.863-5.1-.863l-9.961-7.724s-3.979,5.074-13.052,5.074l-.673,5.784a6.211,6.211,0,0,1,5.49,6.168h-6.209v3.453h40.119v-3.453Z" transform="translate(-2416.699 -2365.907)"/><path d="M2188.165,2376.765l-.673-5.784c-9.074,0-13.052-5.074-13.052-5.074l-9.961,7.724s-2.008.331-5.1.863c-.067.083-1.98,2.39-2.54,8.439h-8.069v3.453h40.119v-3.453h-6.208A6.21,6.21,0,0,1,2188.165,2376.765Z" transform="translate(-2148.765 -2365.907)"/></g></g><g transform="translate(84.19 205.465)"><path class="a" d="M2343.273,1798.418a9.393,9.393,0,0,0,.047-1.3l.571-96.517q.051-.954.011-1.892c0-.034,0-.06-.005-.087l.047-.019v-20.181h-82.387l-1.5,20.858c-.093.625-.157,1.253-.191,1.889l-9.709,96.03a9.362,9.362,0,0,0-.092,1.3l-9.342,74.057,20.753,2.278c9.539-31.6,10.422-61.727,15.607-85.665,6.01-23.373,16.739-56.19,21.935-74.491h5.36c3.5,19.317,9.822,49.635,13.028,71.59,2.606,24.354,1.143,56.126,7.263,88.566l20.012-1.782Z" transform="translate(-2240.72 -1678.421)"/><path class="g" d="M2398.635,1794.8a60.394,60.394,0,0,1,6.5-.719q3.25-.2,6.5-.2t6.5.2a59.678,59.678,0,0,1,6.5.722,59.74,59.74,0,0,1-6.5.722q-3.251.2-6.5.2t-6.5-.2A60.457,60.457,0,0,1,2398.635,1794.8Z" transform="translate(-2350.308 -1758.55)"/></g><g transform="translate(82.927 407.084)"><rect width="1.836" height="13.317" transform="translate(0 1.826) rotate(-84.041)"/></g><g transform="translate(175.268 408.287)"><rect width="13.15" height="1.836" transform="translate(0 0.255) rotate(-1.11)"/></g><path class="h" d="M2303.176,1714.686l83.517-7.415v4.173l-84.313,12.444Z" transform="translate(-2199.32 -1492.978)"/><path class="e" d="M2392.539,1087.665c-.635-11.675-3.866-25.741-3.866-25.741-1.407-6.911-23.209-7.877-32.633,0s-2.11,19.411.747,28.695c.113.368.229.723.346,1.073l2.624,32.734,28.032-5.9-2.389-14.33C2392.3,1102.546,2393.031,1096.71,2392.539,1087.665Z" transform="translate(-2233.325 -1041.273)"/><path class="i" d="M2450.4,1218.711l-6.818-5.147a26.909,26.909,0,0,0,5.805-.933C2449.857,1215.464,2450.4,1218.711,2450.4,1218.711Z" transform="translate(-2297.309 -1149.71)"/><path d="M2377.917,1017.744a10.54,10.54,0,0,0-1.241-3.152,8.457,8.457,0,0,0-1.038-1.394,8.313,8.313,0,0,0-1.309-1.173,9.285,9.285,0,0,0-1.526-.885,9.675,9.675,0,0,0-1.665-.563,10.517,10.517,0,0,0-3.457-.223,11.046,11.046,0,0,0-3.319.842,13.466,13.466,0,0,0-2.892,1.709,14.439,14.439,0,0,0-1.58,1.44c3.2-12.845-16.836-6.871-22.818,3.35-.016-.18-.035-.36-.063-.537a8.464,8.464,0,0,0-1.035-2.875,14,14,0,0,0-.868-1.228,10.736,10.736,0,0,0-1.079-1.046,12.007,12.007,0,0,0,.423,1.413c.133.462.275.91.425,1.347a21.488,21.488,0,0,1,.624,2.626,10.7,10.7,0,0,1,.128,2.413,5.132,5.132,0,0,0-2.159-1.029,6.034,6.034,0,0,0-3.263.265,6.552,6.552,0,0,0-2.6,1.707c1.049-.084,2-.244,2.914-.3a9.542,9.542,0,0,1,2.572.122,6.187,6.187,0,0,1,1.426.5,8.86,8.86,0,0,0-5.187,15.368c1.332,1.618,3.829,5.361,5.962,12.557.476,2.335,1.055,4.641,1.655,6.795,1.7,6.124,3.57,11,3.689,11.719,4.54,2.07,12.058.024,15.065-2.4,5.908-4.764,7.394-12.721,7.73-14.669.37-2.148-.669-5.317,1.464-5.137,6.606.558,5.929-9.764,3.847-14.767a11.582,11.582,0,0,0,2.915-1.554c.264,1.253.561,2.712.561,2.712,8.835-2.752,5.594-23.036-7.52-19.353l.078-.026a11.9,11.9,0,0,1,3.013-.523,10.6,10.6,0,0,1,3,.269,8.547,8.547,0,0,1,2.721,1.157,8.645,8.645,0,0,1,2.174,2.046,11.826,11.826,0,0,1,1.521,2.7,22.706,22.706,0,0,1,1,3.066A12.716,12.716,0,0,0,2377.917,1017.744Z" transform="translate(-2216.018 -1007.03)"/><g transform="translate(142.826 32.139)"><path class="e" d="M2439.863,1127.046c-12.717-7.574-7.378-23.05,1.572-9.848A21.146,21.146,0,0,1,2439.863,1127.046Z" transform="translate(-2432.324 -1112.05)"/><path class="j" d="M2443.156,1125.613a3.783,3.783,0,0,0-2.208-1.9,4.164,4.164,0,0,0-1.669-.176,4.426,4.426,0,0,0-.973.2,2.785,2.785,0,0,0-.877.448,10.587,10.587,0,0,1,1.845.067c.1.012.193.028.289.044a3.467,3.467,0,0,0,.393,3.14c.851,1.494,2.257,2.3,3.141,1.795S2444.007,1127.108,2443.156,1125.613Z" transform="translate(-2435.866 -1120.005)"/></g><path class="k" d="M2325.448,1247.106a17.245,17.245,0,0,0-16.957-6.614l-13.345,1.17-3.808-5.97-32.594,2.874-1.75,6.442-14.291,1.253-.169.015-.051,0a17.237,17.237,0,0,0-14.879,12.754s-16.743,64.754-16.743,64.754,18.829,8.678,19.4,7.387c.217-.49,4.547-9.341,9.832-20.129l.782,7.361-4.711,69.327,90.172-8.006-5.329-70.8,2.07-18.165c12.9,11.54,26.47,23.692,27,24.2,1.016.981,15.206-14.134,15.206-14.134Z" transform="translate(-2135.809 -1165.715)"/><g transform="translate(187.269 54.206)"><path class="e" d="M2683.611,1210.9c-.528-.154-2.377-.723-2.915-.867.023-.142.048-.287.072-.439a2.681,2.681,0,0,0-1.941-3.307c-.738-.216-2.016-.606-2.76-.805a2.576,2.576,0,0,0-1.93-1.977c-2.5-.731-4.616-1.177-4.616-1.177.789-4.489,2.485-9.419,2.874-11.975.867-5.709-2.992-8.113-4.073-4.445s-5.532,19.789-5.532,19.789c-.262.842-5.717,14.26-2.056,19.362l-3.17,5.187-.039-.019-3.7,6.028-9.99,16.281-1.826-2.463-16.366,18.1c5.684,5.092,10.167,9.113,11.713,10.511.181.177.367.348.56.511a10.461,10.461,0,0,0,16.52-4.287l13.006-32.108,2.646-6.533,2.925-7.141c4.686-1.836,7.989-7.1,9.736-11.759,1.048.151,1.688-.036,1.986-1.5,0,0,.181-.939.411-2.361A2.12,2.12,0,0,0,2683.611,1210.9Z" transform="translate(-2610.925 -1184.159)"/><g class="l" transform="translate(0 51.677)"><path class="a" d="M2586.645,1380.326l-9.1-8.139,2.157-19.165Z" transform="translate(-2577.55 -1353.022)"/></g></g><g transform="translate(220.179 115.951)"><path class="i" d="M2691.029,1399.945l-5.94-7.4,4.07-6.63Z" transform="translate(-2685.089 -1385.92)"/></g><g transform="translate(0 103.756)"><path class="e" d="M2060.071,1407.772c.118-.224.227-.453.328-.685.91-1.88,3.582-7.345,6.967-14.26l-22.022-10.525-1.355,5.239-15.2-7.9-7.991-4.154-7.883-4.1a13.094,13.094,0,0,0-3.008-5.709c-5.52-6.465-9.744-11.465-9.744-11.465s-3.123-5.685-4.16-7.494-4.885.088-1.389,6.657a30.844,30.844,0,0,1,3.063,9.031s-2.767-.395-4.941-.64c0,0-17.246-2.572-21.038-3.058s-3.144,4.015,2.432,5.516c2,.537,6.14,1.569,9.984,2.515-6.184-.212-13.492-.541-15.645-.631-3.812-.16-3.892,3.911.311,4.551-3.811-.33-2.994,4.136,2.64,5.408,1.529.345,7.967,2.049,11.339,2.694-2.22-.1-7.034-.324-7.871-.347-2.92-.08-2.113,3.28,2.236,3.995,3.323.546,16.334,2.158,16.334,2.158,3.987.492,9.252.237,13.316-1.728l6.6,4.964,7.222,5.431,23.912,17.984a10.458,10.458,0,0,0,15.565-3.445Z" transform="translate(-1965.615 -1346.071)"/><g class="l" transform="translate(99.573 13.734)"><path class="a" d="M2295.664,1418.866c-3.076,6.277-2.88,5.873-4.676,9.557l1.757-37.474Z" transform="translate(-2290.988 -1390.95)"/></g></g><path class="m" d="M2357.136,1258.41l40.8-3.578-4.093,2.405-31.646,2.85Z" transform="translate(-2237.32 -1178.998)"/><rect class="d" width="3.393" height="10.059" transform="translate(237.298 102.079) rotate(-67.752)"/><circle class="d" cx="5.151" cy="5.151" r="5.151" transform="translate(232.13 94.762)"/><circle class="c" cx="3.841" cy="3.841" r="3.841" transform="translate(233.44 96.073)"/><g transform="translate(71.606 141.709)"><g class="n"><path class="e" d="M2206.369,1473.606l-2.361,9.1-4.406-12.622Z" transform="translate(-2199.602 -1470.087)"/></g></g></g><g transform="translate(1503.919 1341.594)"><rect width="660.303" height="0.612"/></g><rect class="o" width="85.006" height="85.006" rx="30" transform="translate(1976.831 1208.843)"/><path class="a" d="M2870.477,1892.806a13.411,13.411,0,0,0-3.911.581c1.635-13.991-11.563-25.994-25.327-23.093a40.265,40.265,0,0,0-7-15.21c-18.387-25.746-60.1-19.334-70.32,9.928a28.057,28.057,0,0,0-28.5,7.528c-16.816,16.7-3.626,47.9,20.3,47.122h114.759a13.418,13.418,0,0,0,11.611-6.687C2887.348,1904.377,2880.6,1892.549,2870.477,1892.806Z" transform="translate(-849.377 -678.805)"/><g transform="translate(1875.852 1223.232)"><path class="d" d="M2731.962,2100.914l-12.688-10.389,14.233-17.014-12.18-5.9,43.54-22.556-9.283,48-9.8-10.509Zm-10.09-10.635,9.773,8,13.985-18.587,8.836,9.472,7.878-40.736-36.918,19.126,11,5.327Z" transform="translate(-2719.274 -2045.055)"/></g><g transform="translate(1985.885 928.533)"><rect class="a" width="163.558" height="127.608" rx="13.046" transform="translate(0 0)"/><g transform="translate(13.607 8.728)"><path class="b" d="M3126.609,1117.234a3.319,3.319,0,1,1,3.319-3.319A3.323,3.323,0,0,1,3126.609,1117.234Zm0-6.2a2.881,2.881,0,1,0,2.881,2.881A2.885,2.885,0,0,0,3126.609,1111.034Z" transform="translate(-3123.29 -1110.596)"/><g transform="translate(12.049)"><path class="b" d="M3165.982,1117.234a3.319,3.319,0,1,1,3.319-3.319A3.322,3.322,0,0,1,3165.982,1117.234Zm0-6.2a2.881,2.881,0,1,0,2.881,2.881A2.885,2.885,0,0,0,3165.982,1111.034Z" transform="translate(-3162.663 -1110.596)"/></g><g transform="translate(24.098)"><path class="b" d="M3205.354,1117.234a3.319,3.319,0,1,1,3.32-3.319A3.323,3.323,0,0,1,3205.354,1117.234Zm0-6.2a2.881,2.881,0,1,0,2.882,2.881A2.885,2.885,0,0,0,3205.354,1111.034Z" transform="translate(-3202.035 -1110.596)"/></g></g><g transform="translate(0 24.759)"><rect class="b" width="163.558" height="0.438"/></g><g transform="translate(33.449 49.292)"><path class="c" d="M3197.188,1283.366h-9.061v-38.829h9.061Z" transform="translate(-3188.127 -1244.111)"/><path class="c" d="M3253.216,1307.54a3.87,3.87,0,0,1-1.772-.32,2.442,2.442,0,0,1-1-1.333l-.587-1.519q-1.039.88-2,1.546a12.636,12.636,0,0,1-1.985,1.133,9.8,9.8,0,0,1-2.186.693,13.478,13.478,0,0,1-2.572.227,11.285,11.285,0,0,1-3.438-.493,7.171,7.171,0,0,1-2.625-1.453,6.383,6.383,0,0,1-1.665-2.385,8.593,8.593,0,0,1-.587-3.292,6.9,6.9,0,0,1,.746-3.011,7.43,7.43,0,0,1,2.585-2.812,16.434,16.434,0,0,1,4.957-2.119,33.275,33.275,0,0,1,7.861-.959v-1.172a5.068,5.068,0,0,0-1-3.5,3.676,3.676,0,0,0-2.838-1.079,7.533,7.533,0,0,0-2.4.32,10.758,10.758,0,0,0-1.665.72q-.734.4-1.426.719a3.921,3.921,0,0,1-1.653.32,2.381,2.381,0,0,1-1.439-.426,3.707,3.707,0,0,1-.96-1.013l-1.492-2.585a16.787,16.787,0,0,1,5.556-3.291,19.471,19.471,0,0,1,6.543-1.08,11.969,11.969,0,0,1,4.517.813,9.732,9.732,0,0,1,3.411,2.265,9.9,9.9,0,0,1,2.146,3.451,12.41,12.41,0,0,1,.746,4.371v17.269Zm-9.487-5.037a6.549,6.549,0,0,0,2.8-.56,8.509,8.509,0,0,0,2.425-1.812v-3.838a27.522,27.522,0,0,0-4.077.427,9.886,9.886,0,0,0-2.531.8,3.065,3.065,0,0,0-1.293,1.093,2.588,2.588,0,0,0-.36,1.333,2.314,2.314,0,0,0,.773,1.986A3.769,3.769,0,0,0,3243.729,1302.5Z" transform="translate(-3219.13 -1268.284)"/><path class="c" d="M3345.088,1307.54a3.872,3.872,0,0,1-1.772-.32,2.441,2.441,0,0,1-1-1.333l-.586-1.519q-1.039.88-2,1.546a12.636,12.636,0,0,1-1.985,1.133,9.805,9.805,0,0,1-2.185.693,13.485,13.485,0,0,1-2.572.227,11.286,11.286,0,0,1-3.438-.493,7.17,7.17,0,0,1-2.625-1.453,6.383,6.383,0,0,1-1.666-2.385,8.612,8.612,0,0,1-.586-3.292,6.9,6.9,0,0,1,.746-3.011,7.428,7.428,0,0,1,2.585-2.812,16.443,16.443,0,0,1,4.957-2.119,33.281,33.281,0,0,1,7.862-.959v-1.172a5.07,5.07,0,0,0-1-3.5,3.676,3.676,0,0,0-2.838-1.079,7.531,7.531,0,0,0-2.4.32,10.748,10.748,0,0,0-1.665.72q-.734.4-1.426.719a3.915,3.915,0,0,1-1.652.32,2.383,2.383,0,0,1-1.439-.426,3.707,3.707,0,0,1-.959-1.013l-1.492-2.585a16.793,16.793,0,0,1,5.557-3.291,19.469,19.469,0,0,1,6.543-1.08,11.967,11.967,0,0,1,4.517.813,9.735,9.735,0,0,1,3.411,2.265,9.906,9.906,0,0,1,2.145,3.451,12.41,12.41,0,0,1,.746,4.371v17.269Zm-9.488-5.037a6.549,6.549,0,0,0,2.8-.56,8.512,8.512,0,0,0,2.425-1.812v-3.838a27.525,27.525,0,0,0-4.077.427,9.892,9.892,0,0,0-2.531.8,3.062,3.062,0,0,0-1.292,1.093,2.588,2.588,0,0,0-.36,1.333,2.315,2.315,0,0,0,.773,1.986A3.768,3.768,0,0,0,3335.6,1302.5Z" transform="translate(-3282.887 -1268.284)"/><path class="c" d="M3439.444,1251.459a3.39,3.39,0,0,1-.839.959,1.878,1.878,0,0,1-1.132.32,2.772,2.772,0,0,1-1.32-.387q-.705-.387-1.6-.866a13.308,13.308,0,0,0-2.039-.866,8.163,8.163,0,0,0-2.612-.387,5.621,5.621,0,0,0-3.771,1.079,3.673,3.673,0,0,0-1.239,2.918,2.688,2.688,0,0,0,.746,1.946,6.423,6.423,0,0,0,1.959,1.332,20.928,20.928,0,0,0,2.772,1.026q1.559.467,3.185,1.039a28.576,28.576,0,0,1,3.185,1.346,10.636,10.636,0,0,1,2.771,1.972,9.2,9.2,0,0,1,1.959,2.918,10.379,10.379,0,0,1,.746,4.144,13.5,13.5,0,0,1-.932,5.037,11.8,11.8,0,0,1-2.706,4.091,12.556,12.556,0,0,1-4.37,2.745,16.36,16.36,0,0,1-5.9,1,18.913,18.913,0,0,1-3.691-.373,21.9,21.9,0,0,1-3.638-1.052,21.124,21.124,0,0,1-3.3-1.613,14.029,14.029,0,0,1-2.691-2.079l2.665-4.211a2.663,2.663,0,0,1,.84-.76,2.188,2.188,0,0,1,1.132-.306,3.04,3.04,0,0,1,1.612.506q.812.507,1.839,1.12a14.911,14.911,0,0,0,2.358,1.119,8.845,8.845,0,0,0,3.145.506,5.986,5.986,0,0,0,3.81-1.079,4.108,4.108,0,0,0,1.359-3.425,3.237,3.237,0,0,0-.746-2.212,5.767,5.767,0,0,0-1.959-1.413,18.044,18.044,0,0,0-2.758-.986q-1.547-.426-3.171-.946a23.231,23.231,0,0,1-3.171-1.28,10,10,0,0,1-2.759-2,9.34,9.34,0,0,1-1.958-3.091,12.271,12.271,0,0,1-.747-4.571,10.849,10.849,0,0,1,.88-4.264,11.005,11.005,0,0,1,2.585-3.7,12.709,12.709,0,0,1,4.185-2.6,15.447,15.447,0,0,1,5.676-.973,21.315,21.315,0,0,1,3.478.28,18.321,18.321,0,0,1,3.211.826,17.643,17.643,0,0,1,2.838,1.306,13.033,13.033,0,0,1,2.359,1.719Z" transform="translate(-3345.556 -1243.144)"/></g><circle class="c" cx="14.383" cy="14.383" r="14.383" transform="translate(67.396 113.288)"/><circle class="a" cx="8.875" cy="8.875" r="8.875" transform="translate(70.184 122.868) rotate(-22.5)"/></g><g transform="translate(2045.172 1073.354)"><path class="d" d="M3326.419,1712.9h-2.448v-1.836h2.448Zm-7.345,0h-2.448v-1.836h2.448Zm-7.344,0h-2.448v-1.836h2.448Zm-7.345,0h-2.448v-1.836h2.448Zm-7.344,0h-2.448v-1.836h2.448Zm-7.345,0h-2.448v-1.836h2.448Zm-7.345,0H3279.9v-1.836h2.448Zm-7.345,0h-2.448v-1.836h2.448Zm56.409-.246-.222-1.823c.784-.1,1.574-.222,2.347-.377l.36,1.8C3333.081,1712.423,3332.245,1712.557,3331.415,1712.658Zm7.328-1.758-.63-1.725c.74-.27,1.48-.572,2.2-.9l.759,1.672C3340.31,1710.294,3339.527,1710.615,3338.743,1710.9Zm6.734-3.37-1-1.538c.661-.431,1.314-.893,1.94-1.373l1.116,1.458C3346.868,1706.586,3346.177,1707.074,3345.477,1707.531Zm5.8-4.8-1.322-1.274c.548-.568,1.081-1.165,1.584-1.774l1.415,1.171C3352.426,1701.5,3351.862,1702.128,3351.282,1702.729Zm4.583-5.983-1.575-.944c.406-.678.792-1.379,1.145-2.085l1.642.822C3356.7,1695.286,3356.3,1696.029,3355.865,1696.746Zm3.116-6.866-1.748-.563c.242-.751.458-1.521.642-2.288l1.786.428C3359.467,1688.27,3359.238,1689.085,3358.982,1689.88Zm1.478-7.388-1.83-.153c.066-.786.1-1.585.11-2.375l1.836.016C3360.568,1680.815,3360.529,1681.661,3360.459,1682.492Zm.117-7.417h-1.836v-2.448h1.836Zm0-7.345h-1.836v-2.448h1.836Zm0-7.345h-1.836v-2.444l1.836-.009Zm-2.2-7.184c-.12-.78-.271-1.565-.451-2.333l1.788-.417c.19.814.351,1.645.478,2.471Zm-1.879-6.864c-.293-.731-.619-1.461-.968-2.169l1.647-.812c.369.75.714,1.523,1.025,2.3Zm-3.384-6.257c-.452-.647-.935-1.285-1.434-1.9l1.422-1.162c.528.647,1.038,1.322,1.516,2.007Zm-4.708-5.341c-.586-.53-1.2-1.044-1.823-1.528l1.125-1.45c.66.512,1.309,1.056,1.929,1.617Zm-5.787-4.15c-.689-.384-1.4-.747-2.121-1.078l.77-1.667c.76.35,1.515.735,2.245,1.142Zm-6.575-2.735c-.759-.218-1.536-.409-2.308-.569l.371-1.8c.818.169,1.64.372,2.444.6Zm-7.021-1.173c-.8-.042-1.616-.034-2.419-.052l.042-1.836c.822.019,1.656.011,2.474.054Zm-7.424-.541c-.823-.144-1.651-.321-2.461-.528l.453-1.78c.765.195,1.547.363,2.323.5Zm-7.227-2.137c-.769-.326-1.534-.687-2.275-1.071l.845-1.63c.7.363,1.423.7,2.148,1.012Zm-6.551-3.715c-.675-.491-1.339-1.015-1.977-1.557l1.19-1.4c.6.512,1.23,1.007,1.868,1.471Zm-5.551-5.094c-.548-.631-1.079-1.29-1.578-1.961l1.473-1.1c.472.634.973,1.257,1.491,1.853Zm-4.268-6.212c-.393-.74-.762-1.5-1.1-2.267l1.682-.736c.316.723.664,1.443,1.035,2.142Zm-2.756-7.02c-.214-.807-.4-1.633-.552-2.456l1.805-.334c.144.776.32,1.557.522,2.319Zm-1.092-7.455q-.018-.544-.018-1.092v-1.385h1.836v1.385q0,.518.016,1.033Zm1.819-7.374h-1.836v-2.448h1.836Zm0-7.345h-1.836v-2.448h1.836Zm0-7.345h-1.836V1570h1.836Zm0-7.345h-1.836v-2.448h1.836Zm0-7.345h-1.836v-2.448h1.836Z" transform="translate(-3272.558 -1555.306)"/></g></g></svg>